<svg xmlns="http://www.w3.org/2000/svg" viewBox="0 0 64 64" fill="none">
  <rect width="64" height="64" rx="18" fill="#E0F2FE"/>
  <path d="M19 25C16.2 19.8 18.6 13.2 24.2 11.2C28.2 9.8 31.8 12.2 32.8 16.1L34 20.6L25.6 27.2C23.2 29.1 20.4 27.7 19 25Z" fill="#0F172A"/>
  <path d="M45 25C47.8 19.8 45.4 13.2 39.8 11.2C35.8 9.8 32.2 12.2 31.2 16.1L30 20.6L38.4 27.2C40.8 29.1 43.6 27.7 45 25Z" fill="#0F172A"/>
  <path d="M16 36.4C16 26.8 23.8 19 33.4 19H30.6C40.2 19 48 26.8 48 36.4C48 46.1 40.1 54 30.4 54H33.6C23.9 54 16 46.1 16 36.4Z" fill="#F8FAFC"/>
  <circle cx="24.5" cy="34" r="3.2" fill="#0F172A"/>
  <circle cx="39.5" cy="34" r="3.2" fill="#0F172A"/>
  <path d="M32 38.2C35.4 38.2 38 40.4 38 43.1C38 45.8 35.4 48 32 48C28.6 48 26 45.8 26 43.1C26 40.4 28.6 38.2 32 38.2Z" fill="#FB7185"/>
  <path d="M27.2 44.3C29 46 30.3 46.8 32 46.8C33.7 46.8 35 46 36.8 44.3" stroke="#0F172A" stroke-width="2.4" stroke-linecap="round"/>
  <path d="M30.2 40.2L32 37.6L33.8 40.2C34.6 41.4 33.8 43 32.4 43H31.6C30.2 43 29.4 41.4 30.2 40.2Z" fill="#0F172A"/>
  <circle cx="20.5" cy="41.8" r="2.2" fill="#FDA4AF"/>
  <circle cx="43.5" cy="41.8" r="2.2" fill="#FDA4AF"/>
</svg>